<svg xmlns="http://www.w3.org/2000/svg" xmlns:xlink="http://www.w3.org/1999/xlink" width="146" height="47"><defs><ellipse id="c" cx="97.942" cy="77.303" rx="7.908" ry="8.039"/><ellipse id="e" cx="7.908" cy="8.039" rx="7.908" ry="8.039"/><ellipse id="g" cx="74.825" cy="77.303" rx="7.908" ry="8.039"/><path id="a" d="M111.325 51.947h8.517v33.395h-8.517V51.947zm4.258-3.71c-2.687 0-4.866-2.215-4.866-4.948 0-2.732 2.179-4.947 4.866-4.947 2.688 0 4.867 2.215 4.867 4.947 0 2.733-2.179 4.948-4.867 4.948zm-95.38 2.048v7.53h9.09a5.42 5.42 0 003.985-1.645 5.453 5.453 0 001.64-3.995v-.134a5.457 5.457 0 00-1.64-3.997 5.42 5.42 0 00-3.984-1.643H12.167v-8.059h17.127a13.551 13.551 0 019.675 4.03 14.247 14.247 0 012.911 4.355 13.27 13.27 0 011.072 5.306v.134a13.246 13.246 0 01-.703 4.33 14.362 14.362 0 01-1.908 3.726 13.983 13.983 0 014.289 4.842 13.27 13.27 0 011.603 6.446v.134a13.625 13.625 0 01-4.008 9.702 14.179 14.179 0 01-4.35 2.921 13.14 13.14 0 01-5.29 1.074H12.166V50.295l8.035-.01zm12.371 27a5.414 5.414 0 003.984-1.645 5.44 5.44 0 001.64-3.995v-.134a5.447 5.447 0 00-1.64-3.995 5.42 5.42 0 00-3.984-1.645H20.202v11.414h12.372zm30.397-25.56a12.656 12.656 0 015.162-1.013v8.045c-2.464-.045-4.836.977-6.548 2.822-1.794 1.966-2.691 4.245-2.691 6.838v16.925H51.1v-33.56h7.794v2.49a16.321 16.321 0 014.077-2.547zm79.935-1.013c2.233 0 4.674.417 6.5 1.247a13.963 13.963 0 014.689 3.443 15.637 15.637 0 013.01 5.085 17.865 17.865 0 011.061 6.193v18.662h-8.212V66.68c0-2.246-.799-4.11-2.396-5.591-1.55-1.527-3.831-2.293-6.022-2.293a7.996 7.996 0 00-5.677 2.289 7.777 7.777 0 00-2.33 5.595v18.662h-8.212V51.724h8.212v2.491a16.209 16.209 0 014.174-2.525 13.299 13.299 0 015.203-.978z"/></defs><g fill="none" fill-rule="evenodd"><g transform="translate(-12.167 -38.342)"><mask id="b" fill="#fff"><use xlink:href="#a"/></mask><use fill="#1B252D" fill-rule="nonzero" xlink:href="#a"/><g fill="#333" mask="url(#b)"><path d="M0 0h170v124H0z"/></g></g><g transform="translate(-12.167 -38.342)"><mask id="d" fill="#fff"><use xlink:href="#c"/></mask><g fill="#DD5050" mask="url(#d)"><path d="M0 0h170v124H0z"/></g></g><g transform="translate(65.7 11.132)"><mask id="f" fill="#fff"><use xlink:href="#e"/></mask><g fill="#59C159" mask="url(#f)"><path d="M-77.867-49.474h170v124h-170z"/></g></g><g transform="translate(-12.167 -38.342)"><mask id="h" fill="#fff"><use xlink:href="#g"/></mask><g fill="#3DA1EA" mask="url(#h)"><path d="M0 0h170v124H0z"/></g></g></g></svg>